<mxfile host="app.diagrams.net" modified="2023-10-09T05:44:40.945Z" agent="Mozilla/5.0 (Macintosh; Intel Mac OS X 10_15_7) AppleWebKit/605.1.15 (KHTML, like Gecko) Version/16.6 Safari/605.1.15" etag="DstEAow2jKOerz7MRXc_" version="22.0.4" type="github">
  <diagram id="prtHgNgQTEPvFCAcTncT" name="Page-1">
    <mxGraphModel dx="958" dy="1390" grid="1" gridSize="10" guides="1" tooltips="1" connect="1" arrows="1" fold="1" page="1" pageScale="1" pageWidth="827" pageHeight="1169" math="0" shadow="0">
      <root>
        <mxCell id="0" />
        <mxCell id="1" parent="0" />
        <mxCell id="dNxyNK7c78bLwvsdeMH5-19" value="CGH &lt;br&gt;A&amp;amp;E Triage &amp;amp; Treatment Process" style="swimlane;html=1;childLayout=stackLayout;resizeParent=1;resizeParentMax=0;horizontal=0;startSize=20;horizontalStack=0;" parent="1" vertex="1">
          <mxGeometry x="120" y="120" width="2190" height="630" as="geometry" />
        </mxCell>
        <mxCell id="dNxyNK7c78bLwvsdeMH5-20" value="Patient" style="swimlane;html=1;startSize=20;horizontal=0;" parent="dNxyNK7c78bLwvsdeMH5-19" vertex="1">
          <mxGeometry x="20" width="2170" height="210" as="geometry" />
        </mxCell>
        <mxCell id="dNxyNK7c78bLwvsdeMH5-25" value="" style="edgeStyle=orthogonalEdgeStyle;rounded=0;orthogonalLoop=1;jettySize=auto;html=1;" parent="dNxyNK7c78bLwvsdeMH5-20" source="dNxyNK7c78bLwvsdeMH5-23" target="dNxyNK7c78bLwvsdeMH5-24" edge="1">
          <mxGeometry relative="1" as="geometry" />
        </mxCell>
        <mxCell id="dNxyNK7c78bLwvsdeMH5-23" value="" style="ellipse;whiteSpace=wrap;html=1;" parent="dNxyNK7c78bLwvsdeMH5-20" vertex="1">
          <mxGeometry x="40" y="45" width="30" height="30" as="geometry" />
        </mxCell>
        <mxCell id="dNxyNK7c78bLwvsdeMH5-24" value="Patient arrive at A&amp;amp;E" style="rounded=0;whiteSpace=wrap;html=1;fontFamily=Helvetica;fontSize=12;fontColor=#000000;align=center;" parent="dNxyNK7c78bLwvsdeMH5-20" vertex="1">
          <mxGeometry x="120" y="30" width="80" height="60" as="geometry" />
        </mxCell>
        <mxCell id="qgtoDDghmM0IQQvyiqZD-33" value="Patient test" style="whiteSpace=wrap;html=1;" vertex="1" parent="dNxyNK7c78bLwvsdeMH5-20">
          <mxGeometry x="790" y="80" width="120" height="60" as="geometry" />
        </mxCell>
        <mxCell id="qgtoDDghmM0IQQvyiqZD-23" style="edgeStyle=orthogonalEdgeStyle;rounded=0;orthogonalLoop=1;jettySize=auto;html=1;" edge="1" parent="dNxyNK7c78bLwvsdeMH5-20" source="qgtoDDghmM0IQQvyiqZD-22">
          <mxGeometry relative="1" as="geometry">
            <mxPoint x="2090" y="95" as="targetPoint" />
          </mxGeometry>
        </mxCell>
        <mxCell id="qgtoDDghmM0IQQvyiqZD-22" value="Patient make payment" style="rounded=0;whiteSpace=wrap;html=1;" vertex="1" parent="dNxyNK7c78bLwvsdeMH5-20">
          <mxGeometry x="1935" y="65" width="120" height="60" as="geometry" />
        </mxCell>
        <mxCell id="qgtoDDghmM0IQQvyiqZD-25" value="" style="ellipse;whiteSpace=wrap;html=1;aspect=fixed;" vertex="1" parent="dNxyNK7c78bLwvsdeMH5-20">
          <mxGeometry x="2090" y="80" width="30" height="30" as="geometry" />
        </mxCell>
        <mxCell id="qgtoDDghmM0IQQvyiqZD-27" value="Patient receive medication" style="whiteSpace=wrap;html=1;" vertex="1" parent="dNxyNK7c78bLwvsdeMH5-20">
          <mxGeometry x="1760" y="65" width="120" height="60" as="geometry" />
        </mxCell>
        <mxCell id="qgtoDDghmM0IQQvyiqZD-28" style="edgeStyle=orthogonalEdgeStyle;rounded=0;orthogonalLoop=1;jettySize=auto;html=1;" edge="1" parent="dNxyNK7c78bLwvsdeMH5-20" source="qgtoDDghmM0IQQvyiqZD-27" target="qgtoDDghmM0IQQvyiqZD-22">
          <mxGeometry relative="1" as="geometry" />
        </mxCell>
        <mxCell id="qgtoDDghmM0IQQvyiqZD-48" value="Patient registers at the reception" style="whiteSpace=wrap;html=1;" vertex="1" parent="dNxyNK7c78bLwvsdeMH5-20">
          <mxGeometry x="260" y="30" width="120" height="60" as="geometry" />
        </mxCell>
        <mxCell id="qgtoDDghmM0IQQvyiqZD-69" style="edgeStyle=orthogonalEdgeStyle;rounded=0;orthogonalLoop=1;jettySize=auto;html=1;" edge="1" parent="dNxyNK7c78bLwvsdeMH5-20" source="qgtoDDghmM0IQQvyiqZD-68">
          <mxGeometry relative="1" as="geometry">
            <mxPoint x="1960" y="170" as="targetPoint" />
          </mxGeometry>
        </mxCell>
        <mxCell id="qgtoDDghmM0IQQvyiqZD-68" value="Admission to ward" style="whiteSpace=wrap;html=1;" vertex="1" parent="dNxyNK7c78bLwvsdeMH5-20">
          <mxGeometry x="1760" y="140" width="120" height="60" as="geometry" />
        </mxCell>
        <mxCell id="qgtoDDghmM0IQQvyiqZD-70" value="" style="ellipse;whiteSpace=wrap;html=1;" vertex="1" parent="dNxyNK7c78bLwvsdeMH5-20">
          <mxGeometry x="1960" y="155" width="30" height="30" as="geometry" />
        </mxCell>
        <mxCell id="qgtoDDghmM0IQQvyiqZD-71" style="edgeStyle=orthogonalEdgeStyle;rounded=0;orthogonalLoop=1;jettySize=auto;html=1;exitX=0.5;exitY=1;exitDx=0;exitDy=0;entryX=0;entryY=0.75;entryDx=0;entryDy=0;" edge="1" parent="dNxyNK7c78bLwvsdeMH5-20" source="qgtoDDghmM0IQQvyiqZD-64" target="qgtoDDghmM0IQQvyiqZD-68">
          <mxGeometry relative="1" as="geometry" />
        </mxCell>
        <mxCell id="qgtoDDghmM0IQQvyiqZD-64" value="Need Admission?" style="rhombus;whiteSpace=wrap;html=1;rounded=0;" vertex="1" parent="dNxyNK7c78bLwvsdeMH5-20">
          <mxGeometry x="1530" y="60" width="80" height="80" as="geometry" />
        </mxCell>
        <mxCell id="qgtoDDghmM0IQQvyiqZD-67" style="edgeStyle=orthogonalEdgeStyle;rounded=0;orthogonalLoop=1;jettySize=auto;html=1;entryX=0;entryY=0.5;entryDx=0;entryDy=0;exitX=1;exitY=0.5;exitDx=0;exitDy=0;" edge="1" parent="dNxyNK7c78bLwvsdeMH5-20" source="qgtoDDghmM0IQQvyiqZD-64" target="qgtoDDghmM0IQQvyiqZD-27">
          <mxGeometry relative="1" as="geometry">
            <Array as="points">
              <mxPoint x="1610" y="95" />
            </Array>
          </mxGeometry>
        </mxCell>
        <mxCell id="qgtoDDghmM0IQQvyiqZD-1" value="Staff" style="swimlane;html=1;startSize=20;horizontal=0;" vertex="1" parent="dNxyNK7c78bLwvsdeMH5-19">
          <mxGeometry x="20" y="210" width="2170" height="120" as="geometry" />
        </mxCell>
        <mxCell id="qgtoDDghmM0IQQvyiqZD-3" value="First Triage" style="rounded=0;whiteSpace=wrap;html=1;fontFamily=Helvetica;fontSize=12;fontColor=#000000;align=center;" vertex="1" parent="qgtoDDghmM0IQQvyiqZD-1">
          <mxGeometry x="120" y="25" width="80" height="60" as="geometry" />
        </mxCell>
        <mxCell id="qgtoDDghmM0IQQvyiqZD-39" value="Critically-ill Patient?" style="rhombus;whiteSpace=wrap;html=1;" vertex="1" parent="qgtoDDghmM0IQQvyiqZD-1">
          <mxGeometry x="260" y="10" width="80" height="90" as="geometry" />
        </mxCell>
        <mxCell id="qgtoDDghmM0IQQvyiqZD-38" style="edgeStyle=orthogonalEdgeStyle;rounded=0;orthogonalLoop=1;jettySize=auto;html=1;exitX=1;exitY=0.5;exitDx=0;exitDy=0;entryX=0;entryY=0.5;entryDx=0;entryDy=0;" edge="1" parent="qgtoDDghmM0IQQvyiqZD-1" source="qgtoDDghmM0IQQvyiqZD-3" target="qgtoDDghmM0IQQvyiqZD-39">
          <mxGeometry relative="1" as="geometry">
            <mxPoint x="260" y="-150" as="targetPoint" />
          </mxGeometry>
        </mxCell>
        <mxCell id="qgtoDDghmM0IQQvyiqZD-61" style="edgeStyle=orthogonalEdgeStyle;rounded=0;orthogonalLoop=1;jettySize=auto;html=1;entryX=0;entryY=0.5;entryDx=0;entryDy=0;" edge="1" parent="qgtoDDghmM0IQQvyiqZD-1" source="qgtoDDghmM0IQQvyiqZD-4" target="qgtoDDghmM0IQQvyiqZD-60">
          <mxGeometry relative="1" as="geometry" />
        </mxCell>
        <mxCell id="qgtoDDghmM0IQQvyiqZD-4" value="Test Needed?" style="rhombus;whiteSpace=wrap;html=1;fontFamily=Helvetica;fontSize=12;fontColor=#000000;align=center;" vertex="1" parent="qgtoDDghmM0IQQvyiqZD-1">
          <mxGeometry x="600" y="20" width="110" height="80" as="geometry" />
        </mxCell>
        <mxCell id="qgtoDDghmM0IQQvyiqZD-56" style="edgeStyle=orthogonalEdgeStyle;rounded=0;orthogonalLoop=1;jettySize=auto;html=1;entryX=0;entryY=0.5;entryDx=0;entryDy=0;" edge="1" parent="qgtoDDghmM0IQQvyiqZD-1" source="qgtoDDghmM0IQQvyiqZD-52" target="qgtoDDghmM0IQQvyiqZD-4">
          <mxGeometry relative="1" as="geometry" />
        </mxCell>
        <mxCell id="qgtoDDghmM0IQQvyiqZD-52" value="Second Triage" style="whiteSpace=wrap;html=1;" vertex="1" parent="qgtoDDghmM0IQQvyiqZD-1">
          <mxGeometry x="430" y="30" width="100" height="60" as="geometry" />
        </mxCell>
        <mxCell id="qgtoDDghmM0IQQvyiqZD-60" value="Diagnosis Needed?" style="rhombus;whiteSpace=wrap;html=1;" vertex="1" parent="qgtoDDghmM0IQQvyiqZD-1">
          <mxGeometry x="800" y="20" width="100" height="80" as="geometry" />
        </mxCell>
        <mxCell id="qgtoDDghmM0IQQvyiqZD-10" value="Third Triage" style="whiteSpace=wrap;html=1;" vertex="1" parent="qgtoDDghmM0IQQvyiqZD-1">
          <mxGeometry x="1041" y="30" width="120" height="60" as="geometry" />
        </mxCell>
        <mxCell id="qgtoDDghmM0IQQvyiqZD-63" style="edgeStyle=orthogonalEdgeStyle;rounded=0;orthogonalLoop=1;jettySize=auto;html=1;entryX=0;entryY=0.5;entryDx=0;entryDy=0;" edge="1" parent="qgtoDDghmM0IQQvyiqZD-1" source="qgtoDDghmM0IQQvyiqZD-60" target="qgtoDDghmM0IQQvyiqZD-10">
          <mxGeometry relative="1" as="geometry" />
        </mxCell>
        <mxCell id="dNxyNK7c78bLwvsdeMH5-21" value="Triage System (Kiosk)" style="swimlane;html=1;startSize=20;horizontal=0;" parent="dNxyNK7c78bLwvsdeMH5-19" vertex="1">
          <mxGeometry x="20" y="330" width="2170" height="100" as="geometry" />
        </mxCell>
        <mxCell id="dNxyNK7c78bLwvsdeMH5-22" value="Doctor" style="swimlane;html=1;startSize=20;horizontal=0;" parent="dNxyNK7c78bLwvsdeMH5-19" vertex="1">
          <mxGeometry x="20" y="430" width="2170" height="200" as="geometry" />
        </mxCell>
        <mxCell id="qgtoDDghmM0IQQvyiqZD-32" value="" style="edgeStyle=orthogonalEdgeStyle;rounded=0;orthogonalLoop=1;jettySize=auto;html=1;" edge="1" parent="dNxyNK7c78bLwvsdeMH5-22" source="qgtoDDghmM0IQQvyiqZD-21" target="qgtoDDghmM0IQQvyiqZD-31">
          <mxGeometry relative="1" as="geometry" />
        </mxCell>
        <mxCell id="qgtoDDghmM0IQQvyiqZD-21" value="Doctor diagnosis" style="rounded=0;whiteSpace=wrap;html=1;" vertex="1" parent="dNxyNK7c78bLwvsdeMH5-22">
          <mxGeometry x="790" y="80" width="120" height="60" as="geometry" />
        </mxCell>
        <mxCell id="qgtoDDghmM0IQQvyiqZD-31" value="Doctor treatment" style="whiteSpace=wrap;html=1;rounded=0;" vertex="1" parent="dNxyNK7c78bLwvsdeMH5-22">
          <mxGeometry x="1280" y="80" width="120" height="60" as="geometry" />
        </mxCell>
        <mxCell id="qgtoDDghmM0IQQvyiqZD-50" style="edgeStyle=orthogonalEdgeStyle;rounded=0;orthogonalLoop=1;jettySize=auto;html=1;entryX=0;entryY=0.5;entryDx=0;entryDy=0;exitX=1;exitY=0.5;exitDx=0;exitDy=0;" edge="1" parent="dNxyNK7c78bLwvsdeMH5-22" source="qgtoDDghmM0IQQvyiqZD-42" target="qgtoDDghmM0IQQvyiqZD-21">
          <mxGeometry relative="1" as="geometry" />
        </mxCell>
        <mxCell id="qgtoDDghmM0IQQvyiqZD-42" value="Resuscitation" style="whiteSpace=wrap;html=1;" vertex="1" parent="dNxyNK7c78bLwvsdeMH5-22">
          <mxGeometry x="440" y="80" width="120" height="60" as="geometry" />
        </mxCell>
        <mxCell id="qgtoDDghmM0IQQvyiqZD-8" style="edgeStyle=orthogonalEdgeStyle;rounded=0;orthogonalLoop=1;jettySize=auto;html=1;entryX=0.5;entryY=0;entryDx=0;entryDy=0;" edge="1" parent="dNxyNK7c78bLwvsdeMH5-19" source="dNxyNK7c78bLwvsdeMH5-24" target="qgtoDDghmM0IQQvyiqZD-3">
          <mxGeometry relative="1" as="geometry" />
        </mxCell>
        <mxCell id="qgtoDDghmM0IQQvyiqZD-46" style="edgeStyle=orthogonalEdgeStyle;rounded=0;orthogonalLoop=1;jettySize=auto;html=1;" edge="1" parent="dNxyNK7c78bLwvsdeMH5-19" source="qgtoDDghmM0IQQvyiqZD-39">
          <mxGeometry relative="1" as="geometry">
            <mxPoint x="320" y="90" as="targetPoint" />
            <Array as="points">
              <mxPoint x="320" y="90" />
            </Array>
          </mxGeometry>
        </mxCell>
        <mxCell id="qgtoDDghmM0IQQvyiqZD-47" value="No" style="edgeLabel;html=1;align=center;verticalAlign=middle;resizable=0;points=[];" vertex="1" connectable="0" parent="qgtoDDghmM0IQQvyiqZD-46">
          <mxGeometry x="-0.0179" y="18" relative="1" as="geometry">
            <mxPoint x="-1" y="-4" as="offset" />
          </mxGeometry>
        </mxCell>
        <mxCell id="qgtoDDghmM0IQQvyiqZD-44" style="edgeStyle=orthogonalEdgeStyle;rounded=0;orthogonalLoop=1;jettySize=auto;html=1;exitX=1;exitY=0.5;exitDx=0;exitDy=0;entryX=0;entryY=0.75;entryDx=0;entryDy=0;" edge="1" parent="dNxyNK7c78bLwvsdeMH5-19" source="qgtoDDghmM0IQQvyiqZD-39" target="qgtoDDghmM0IQQvyiqZD-42">
          <mxGeometry relative="1" as="geometry">
            <mxPoint x="440" y="260" as="targetPoint" />
          </mxGeometry>
        </mxCell>
        <mxCell id="qgtoDDghmM0IQQvyiqZD-53" style="edgeStyle=orthogonalEdgeStyle;rounded=0;orthogonalLoop=1;jettySize=auto;html=1;" edge="1" parent="dNxyNK7c78bLwvsdeMH5-19" source="qgtoDDghmM0IQQvyiqZD-48" target="qgtoDDghmM0IQQvyiqZD-52">
          <mxGeometry relative="1" as="geometry" />
        </mxCell>
        <mxCell id="qgtoDDghmM0IQQvyiqZD-59" style="edgeStyle=orthogonalEdgeStyle;rounded=0;orthogonalLoop=1;jettySize=auto;html=1;entryX=0;entryY=0.5;entryDx=0;entryDy=0;" edge="1" parent="dNxyNK7c78bLwvsdeMH5-19" source="qgtoDDghmM0IQQvyiqZD-4" target="qgtoDDghmM0IQQvyiqZD-33">
          <mxGeometry relative="1" as="geometry">
            <Array as="points">
              <mxPoint x="675" y="110" />
            </Array>
          </mxGeometry>
        </mxCell>
        <mxCell id="qgtoDDghmM0IQQvyiqZD-62" style="edgeStyle=orthogonalEdgeStyle;rounded=0;orthogonalLoop=1;jettySize=auto;html=1;entryX=0.5;entryY=0;entryDx=0;entryDy=0;" edge="1" parent="dNxyNK7c78bLwvsdeMH5-19" source="qgtoDDghmM0IQQvyiqZD-60" target="qgtoDDghmM0IQQvyiqZD-21">
          <mxGeometry relative="1" as="geometry" />
        </mxCell>
        <mxCell id="qgtoDDghmM0IQQvyiqZD-66" style="edgeStyle=orthogonalEdgeStyle;rounded=0;orthogonalLoop=1;jettySize=auto;html=1;exitX=0.5;exitY=1;exitDx=0;exitDy=0;entryX=0.5;entryY=0;entryDx=0;entryDy=0;" edge="1" parent="dNxyNK7c78bLwvsdeMH5-19" source="qgtoDDghmM0IQQvyiqZD-33" target="qgtoDDghmM0IQQvyiqZD-60">
          <mxGeometry relative="1" as="geometry" />
        </mxCell>
        <mxCell id="qgtoDDghmM0IQQvyiqZD-65" value="" style="edgeStyle=orthogonalEdgeStyle;rounded=0;orthogonalLoop=1;jettySize=auto;html=1;entryX=0;entryY=0.5;entryDx=0;entryDy=0;" edge="1" parent="dNxyNK7c78bLwvsdeMH5-19" source="qgtoDDghmM0IQQvyiqZD-31" target="qgtoDDghmM0IQQvyiqZD-64">
          <mxGeometry relative="1" as="geometry" />
        </mxCell>
        <mxCell id="qgtoDDghmM0IQQvyiqZD-45" value="Yes" style="text;html=1;align=center;verticalAlign=middle;resizable=0;points=[];autosize=1;strokeColor=none;fillColor=none;" vertex="1" parent="1">
          <mxGeometry x="480" y="358" width="40" height="30" as="geometry" />
        </mxCell>
      </root>
    </mxGraphModel>
  </diagram>
</mxfile>
